<?xml version="1.0" encoding="utf-8"?>
<!-- Generator: Adobe Illustrator 21.1.0, SVG Export Plug-In . SVG Version: 6.00 Build 0)  -->
<svg version="1.1" id="Layer_1" xmlns="http://www.w3.org/2000/svg" xmlns:xlink="http://www.w3.org/1999/xlink" x="0px" y="0px"
	 viewBox="0 0 244.8 45.6" style="enable-background:new 0 0 244.8 45.6;" xml:space="preserve">
<style type="text/css">
	.st0{fill:#E4003A;}
	.st1{fill-rule:evenodd;clip-rule:evenodd;fill:#E4003A;}
</style>
<title>greece</title>
<g>
	<path class="st0" d="M88.5,18.1V4.4h5.1c2.4,0,4.1,0.9,4.1,3.6c0,1.2-0.4,2.2-1.5,2.8v0c2,0.3,2.8,1.6,2.8,3.5c0,2.9-2.5,3.8-5,3.8
		H88.5z M92,9.8h0.4c0.9,0,1.9-0.2,1.9-1.3c0-1.3-1.1-1.3-2.1-1.3H92V9.8z M92,15.4h0.5c1.1,0,2.8,0.1,2.8-1.5
		c0-1.7-1.8-1.5-2.9-1.5H92V15.4z"/>
	<path class="st0" d="M104.3,7.4v2.3h4v3h-4v2.4h4.2v3h-7.8V4.4h7.8v3H104.3z"/>
	<path class="st0" d="M118,7.9c-0.7-0.5-1.5-0.9-2.4-0.9c-0.7,0-1.5,0.4-1.5,1.1c0,0.8,1,1.1,1.6,1.3l0.9,0.3
		c1.9,0.6,3.4,1.5,3.4,3.8c0,1.4-0.3,2.8-1.4,3.7c-1.1,0.9-2.5,1.3-3.9,1.3c-1.7,0-3.4-0.6-4.8-1.6l1.5-2.9c0.9,0.8,2,1.4,3.2,1.4
		c0.8,0,1.7-0.4,1.7-1.4c0-1-1.4-1.3-2.2-1.6c-2.2-0.6-3.7-1.2-3.7-3.9c0-2.8,2-4.6,4.7-4.6c1.4,0,3.1,0.4,4.3,1.1L118,7.9z"/>
	<path class="st0" d="M127,18.1h-3.6V7.4h-3v-3h9.5v3h-3V18.1z"/>
	<path class="st1" d="M61.2,23c-1.1,0.6-2.2,1.1-3.2,1.6c-0.5,0.3-1.1,0.5-1.7,0.4c-0.2-0.3-0.3-0.6-0.5-0.8c0.1-0.7,0.5-1.1,1-1.5
		c0.6-0.4,1.2-0.8,1.9-1.1c0.3-0.1,0.5-0.1,0.6-0.5c0-0.1,0.1-0.1,0.2-0.1c0.6-0.1,0.9-0.5,1.3-1c-0.2-0.1-0.3-0.3-0.4-0.3
		c-0.6-0.3-0.9-0.9-1-1.5c-0.1-0.5-0.1-1-0.5-1.4c-0.1-0.1,0-0.4,0-0.7c-0.1,0-0.2,0-0.3,0.1c-0.3,0.2-0.5,0.6-1,0.5
		c0,0-0.1,0-0.1,0.1c-0.2,0.4-0.5,0.3-0.8,0.3c-0.7-0.1-1.4-0.4-1.9-1.1c-0.2-0.3-0.5-0.5-0.6-0.8c-0.3-0.4-0.6-0.7-0.6-1.3
		c0-0.4-0.4-0.7-0.1-1.3c0.4-0.2,0.8-0.2,1.3-0.1c0.2,0,0.5,0,0.7,0c0.8,0,1.4-0.4,2-0.8c0.1-0.1,0.1-0.2,0.2-0.3
		c-0.5-0.7-0.6-1.5-0.7-2.3c-0.1-0.2-0.1-0.4-0.3-0.6c-0.5-0.3-0.5-0.7-0.5-1.2c0-0.3-0.1-0.6,0-0.9c0-0.4,0.1-0.8,0.2-1.2
		c0.4,0.2,0.9,0.4,1.2,0.7c0.2,0.1,0.4,0.2,0.6,0.3c0.8,0.3,1.3,0.9,1.8,1.6c0.4,0.6,0.9,1.1,1.1,1.9c0.1,0.3,0.3,0.4,0.6,0.5
		c0.7,0.1,1,0.6,1.1,1.3C62.6,11.5,63,11.6,63,12c-0.3,0.6-0.8,0.9-1.3,1.4c0.1,0,0.2,0.1,0.2,0.1c1.1-0.8,2.4-1.1,3.6-1.8
		c0.4-1.1,0.8-2.3,1.2-3.4c0.1-0.3,0.1-0.6,0.1-0.9c0-0.3,0.2-0.6,0.2-0.9c0-0.3-0.1-0.6-0.3-0.9c-0.4-0.5-0.5-1.2-0.6-1.8
		c0-0.3-0.2-0.7-0.3-1c0.2-0.1,0.4-0.2,0.7-0.2c0.4,0.1,0.9,0.1,1.3,0.2c0.1,0,0.3,0.1,0.4,0.2c0.7,0.4,1.4,0.9,2.1,1.4
		c0.1,0.1,0.2,0.1,0.2,0.2c0.2,0.6,0.4,1.1,0.5,1.7c0.1,0.6-0.4,1-0.8,1.4c-0.5,0-0.4,0.6-0.8,0.8c-0.4,0.2-0.3,0.7-0.5,1
		c0,0.1-0.1,0.2-0.1,0.3c0.2,0.2,0.4,0.3,0.6,0.5c0.4,0.5,1,0.6,1.6,0.6c0.9,0,1.7,0.5,2.2,1.3c0.1,0.2,0.1,0.5,0.2,0.8
		c-0.5,0.1-0.9,0.1-1.3,0.2c-0.4,0.1-0.7,0.2-1,0.3c-1,0.3-2.1,0.3-3.1,0.4c-0.4,0-0.8,0.1-1.2,0.3c-0.3,0.7-0.6,1.4-1.1,2
		c-0.4,0.6-0.7,1.3-1,2c0.3,0.2,0.6,0.1,0.9,0.1c0.8,0,1.4,0.3,1.8,0.9c-0.2,0.6-0.5,1-0.8,1.4c-0.5,0.5-1,1-1.5,1.4
		c-0.6,0.4-1.1,1.1-1.6,1.6c-0.5,0.6-1,1.2-1.4,1.8c0,0.1,0,0.2-0.1,0.2c0.1,0.2,0.2,0.1,0.3,0c1-0.6,2-1.1,3.1-1.5
		c0.9-0.3,1.7-0.6,2.6-0.9c0.4-0.1,0.9-0.2,1.3-0.4c0.5-0.2,1.1-0.1,1.6-0.1c0.1,0,0.3,0.1,0.4,0.1c0.5,0,0.8,0.3,1.1,0.7
		c0.1,0.2,0.2,0.3,0.3,0.5c-0.1,0.1-0.3,0.2-0.4,0.3c-0.1,0.1-0.1,0.3-0.2,0.5c-0.6,0.2-1.2,0.3-1.8,0.5c-0.5,0.1-0.9,0.3-1.3,0.7
		c-0.8,0.7-1.7,1.5-2.6,2.4c0.3,0,0.4-0.1,0.6-0.1c0.8-0.2,1.6-0.1,2.2,0.6c0.2,0.2,0.3,0.4,0.4,0.7c0.1,0.3,0,0.5-0.2,0.7
		c-0.1,0.1-0.2,0.2-0.4,0.3c-0.9,0.7-1.6,1.6-2.4,2.5c0.2,0.2,0.4,0.3,0.6,0.5c-0.3,0.6-0.6,1.2-1.1,1.6c-0.1,0.1-0.1,0.2-0.2,0.3
		c-0.9,0.5-1.8,0.7-2.8,0.9c-0.3-0.9-0.3-1,0.3-2.2c-0.1,0-0.2-0.1-0.3-0.1c-0.2,0-0.4,0.1-0.6,0.2c-0.2,1-0.4,2-0.1,3.1
		c0.1,0.4,0.1,0.8,0.1,1.2c0,0.6,0.4,1,0.5,1.6c0,0.2,0.2,0.3,0.3,0.4c0.1,0.1,0.3,0.2,0.5,0.3c0.6,0.2,1.1,0.5,1.7,0.7
		c0.8,0.2,1.5,0.3,2.2,0.1c0.4-0.1,0.7,0,1.1-0.1c0.2,0,0.4,0,0.5-0.1c0.6-0.3,1.4-0.3,2-0.5c0.2-0.1,0.4-0.1,0.6-0.2
		c0.3-0.1,0.6-0.2,0.9-0.3c0.2-0.1,0.4-0.2,0.6-0.2c0.4-0.2,0.8-0.4,1.2-0.6c0.3-0.2,0.6-0.4,0.8-0.7c0.2-0.3,0.6-0.4,0.8-0.8
		c0-0.1,0.2-0.2,0.2-0.3c0.9-0.9,1.4-2,1.7-3.2c0.1-0.2,0.2-0.5,0.2-0.8c0.3,0.5,0.4,0.9,0.4,1.4c0,0.3-0.1,0.6,0,0.9
		c-0.2,0.9,0.1,1.7,0.2,2.5c0,0.1,0,0.2,0.1,0.3c0.4,0.5,0.3,1.2,0.3,1.8c0,0.2,0,0.5-0.1,0.7c-0.5,1-1.3,2.1-2.4,2.6
		c-0.8,0.4-1.5,0.8-2.4,0.9c-0.6,0.1-1.2,0.2-1.8,0.4c-0.3,0.1-0.6,0.2-1,0c-0.1,0-0.2,0-0.3,0c-0.4,0.3-0.9,0.1-1.3,0.1
		c-1-0.1-2-0.2-3-0.2c-0.5,0-0.9-0.1-1.3-0.2c-0.4-0.1-0.9,0-1.3-0.1c-0.7-0.2-1.5-0.4-2.1-0.8c-0.3-0.2-0.7-0.3-1-0.6
		c-0.4-0.5-0.8-0.9-1.2-1.3c-0.1-0.1-0.2-0.3-0.2-0.5c-0.1-0.5-0.2-0.9-0.3-1.4c0-0.3,0-0.6,0-0.8c-0.1-1,0.1-1.9,0.4-2.8
		c0.1-0.2,0.2-0.5,0.2-0.7c0.2-1.1,0.8-1.9,1.4-2.8c-0.3-0.2-0.6,0-0.8,0c-0.4,0-0.6-0.1-0.8-0.5c-0.1-0.2-0.1-0.6,0.1-0.7
		c0.7-0.7,1.5-1.3,2.4-1.7c0.3-0.1,0.7-0.3,1-0.5c0.6-0.6,1.2-1.1,1.8-1.6c0.5-0.6,1.1-1.1,1.6-1.7c0.2-0.2,0.4-0.4,0.6-0.6
		c0-0.4-0.2-0.4-0.5-0.4c-0.4,0-0.9,0.1-1.3,0.2c-1.4,0.3-2.7,0.9-4,1.6c-0.2,0.1-0.4,0.3-0.6,0.4c-0.5,0.2-0.9,0.6-1.1,1.1
		c-0.1,0.1-0.1,0.3-0.2,0.3c-0.6,0.5-0.9,1.3-1.5,1.8c-0.1,0.5-0.5,0.7-0.8,1c-0.1,0.2-0.3,0.5-0.5,0.7c-0.1,0.1-0.1,0.2-0.2,0.3
		c-0.7,0.7-1.3,1.4-1.8,2.3c-0.6,0.3-0.8,0.9-1.1,1.4c-0.3,0.4-0.5,0.7-0.9,1c-0.4,0.3-0.7,0.8-1,1.1c-0.4,0.3-0.7,0.6-1,1
		c-0.4,0.5-0.8,1-1.5,1.2c-0.2,0-0.4,0.3-0.6,0.4c-0.2,0.1-0.4,0.2-0.6,0.3c-0.3-0.1-0.5-0.4-0.4-0.6c0-0.4,0-0.8,0.3-1.1
		c0.4-0.4,0.6-0.8,1-1.1c0.6-0.5,0.9-1.1,1.4-1.7c0.4-0.6,0.8-1.2,1.2-1.8c0.1-0.1,0.2-0.1,0.4-0.3c-0.1,0.5-0.2,0.8-0.3,1.1
		c0.1,0,0.2,0,0.2-0.1c0.8-1.1,1.7-2.1,2.4-3.2c0.4-0.6,0.8-1,1.3-1.5c0.2-0.2,0.2-0.4,0.4-0.5c0.2-0.1,0.2-0.2,0.2-0.5
		c0-0.1,0.1-0.2,0.1-0.3c0.5-0.5,0.8-1.2,1.3-1.7c0.6-0.7,0.9-1.6,1.5-2.3c0.6-0.7,1.1-1.4,1.6-2.1C61.2,23.2,61.2,23.1,61.2,23z
		 M62.1,18.4C62.1,18.4,62.2,18.4,62.1,18.4c0.3-0.3,0.5-0.7,0.6-1c0.1-0.5,0.6-0.5,0.8-0.9c0.1-0.2,0.1-0.3,0-0.4c0,0,0-0.1,0-0.1
		c0.3-0.1,0.2-0.4,0.4-0.6c0.1-0.2,0.3-0.4,0.3-0.7c-0.5,0-0.9,0.2-1.3,0.5C62.4,15.5,62,16,62,16.6C61.9,17.2,61.8,17.8,62.1,18.4z
		 M66.1,30.3c-0.4-0.1-0.7-0.1-1,0.1c-0.4,0.2-0.9,0.4-1.3,0.7c-0.3,0.2-0.6,0.5-0.8,0.9c0.6-0.1,1.1,0,1.5,0.2
		c0.2,0.1,0.3,0.1,0.5,0.2C65.5,31.7,66,31.1,66.1,30.3z M68.7,11.2c0.1-0.7,0.1-0.7-0.3-0.7c0,0.2-0.1,0.4-0.1,0.7
		C68.4,11.2,68.6,11.2,68.7,11.2z"/>
	<path class="st1" d="M46.6,31.4c0.2-0.3,0.4-0.7,0.6-1.1l0,0c0,0.4,0,0.4,0.4,0.4l0,0c0,0.2,0.1,0.4,0.1,0.7
		c0.1,0.1,0.2,0.1,0.3,0.2c-0.5,0.3-0.7,0.7-0.9,1.2c-0.1,0-0.1,0.1-0.2,0.1c0,0,0,0.1,0.1,0.1c0.1,0,0.2,0,0.1-0.2
		c0.1,0.1,0.3,0.1,0.3,0.4c0,0.1,0,0.2,0.1,0.4c0,0,0.1,0.1,0.1,0.1c0.1,0,0.2-0.1,0.2-0.2c0-0.2,0-0.5-0.1-0.8c0.2,0,0.4,0,0.5,0
		l0,0c0.1,0.6-0.1,1-0.5,1.4c-0.1,0.1-0.1,0.2,0,0.3l0,0c-0.1,0.1-0.2,0.1-0.3,0.2c0,0.2,0,0.4,0,0.6c0,0.4,0,0.7,0,1.1
		c-0.3,0.2,0,0.6-0.1,0.9c-0.2,0.7-0.1,1.4-0.3,2.1c-0.1,0.5-0.1,0.9,0.1,1.4c-0.2,0.4-0.4,0.8-0.5,1.3c-0.1-0.1-0.2-0.2-0.2-0.2
		c-0.1,0.2-0.3,0.3,0,0.5c0,0,0.1-0.1,0.2-0.1c-0.1,0.4-0.5,0.4-0.7,0.8c-0.2,0-0.3-0.1-0.5-0.1c-0.1,0.2-0.2,0.3-0.3,0.5
		c-0.1-0.1-0.2-0.1-0.2-0.1c-0.1-0.3-0.2-0.5-0.4-0.6C44.1,42,44,41.8,44,41.6c0-0.1-0.1-0.3-0.2-0.4c-0.3-0.2-0.4-0.5-0.3-0.8
		c0-0.1,0-0.2,0-0.3c-0.4-0.4-0.2-0.9-0.3-1.4c-0.1-0.5-0.1-1-0.2-1.4c-0.1-1,0-2,0-3c0.1-2,0.2-3.9,0.4-5.9c0-0.6,0-1.2,0.1-1.7
		c0.1-0.9,0-1.7-0.1-2.6c0-0.3,0-0.7,0-1.1c0.1-1,0.1-1.9,0.2-2.9c0.2-1.5,0.5-3,1-4.4c0.2-0.5,0.4-0.9,0.7-1.3
		c0.4-0.7,0.7-1.4,1-2.1c-0.4-0.7-0.7-1.4-1.1-2.1c-0.3-0.6-0.4-1.4-0.4-2.1c0.7,0.1,1.3-0.1,1.9,0.4c0.2,0.1,0.4,0.2,0.5,0.3
		c0.6,0.5,1,1.1,1.3,1.9c0.4,0.9,0.3,1.8,0.4,2.7c0.1,0.6-0.4,1.1-0.9,1c-0.3,0-0.5-0.2-0.8-0.3c-0.3,0.2-0.6,0.4-1,0.6
		c-0.3,0.2-0.5,0.5-0.6,0.9c-0.3,1-0.5,2-0.3,3c0.1,0.9,0.3,1.7,0.2,2.6c0,0.1,0,0.1,0,0.2c0.3,0.7,0.2,1.5,0.3,2.3
		c0.1,0.6,0.2,1.1,0.1,1.7c-0.1,0.4,0.1,0.8,0,1.2c-0.1,1.5-0.2,3-0.3,4.5c0,0.1-0.1,0.1,0,0.2c0.2,0.4,0.1,0.8,0,1.3
		c0.4-0.3,0.5-0.5,0.6-0.9C46.3,31.5,46.4,31.5,46.6,31.4c-0.1,0.2-0.1,0.4-0.2,0.7c0.3-0.2,0.4-0.4,0.3-0.6
		C46.7,31.4,46.6,31.4,46.6,31.4z M46.2,34.1c0.1,0.2,0.2,0.3,0.3,0.5c0.3-0.2,0.5-0.4,0.7-0.6c-0.2-0.1-0.3-0.2-0.4-0.3
		C46.6,33.7,46.5,33.9,46.2,34.1z"/>
	<path class="st1" d="M47.2,30.3c0-0.1,0-0.3,0-0.4c0.2,0,0.3,0.1,0.5,0.1c0-0.1,0-0.2,0-0.3c0-0.1,0-0.2,0-0.2c0-0.2,0.4,0,0.4-0.3
		c0-0.2,0-0.3,0-0.5c0-0.2,0.2-0.3,0.3-0.5c0,0.1,0,0.2-0.1,0.4c0,0,0.1,0,0.1,0c0-0.1,0-0.2,0-0.3c0.1,0.1,0.2,0.1,0.4,0.2
		c-0.1,0.2-0.2,0.3-0.3,0.4c-0.1,0.2-0.2,0.3-0.3,0.5c-0.1,0.2-0.2,0.3-0.2,0.5c0,0.4-0.3,0.6-0.5,0.8l0,0
		C47.4,30.5,47.4,30.3,47.2,30.3L47.2,30.3z"/>
	<path class="st1" d="M48,32.5c0-0.1,0-0.2,0.1-0.3c0,0,0.1,0,0.1,0c0,0,0,0.1,0,0.1C48.1,32.3,48.1,32.4,48,32.5L48,32.5z"/>
	<path class="st1" d="M47.6,34.1c-0.1,0.1-0.1,0.1,0,0.2l0,0C47.6,34.3,47.5,34.2,47.6,34.1L47.6,34.1z"/>
	<path class="st1" d="M31.1,25.3c-0.2,0.1-0.5,0-0.5,0.4c-0.2-0.1-0.4-0.2-0.6-0.3c-0.2-0.1-0.3,0-0.3,0.4c-0.5,0.1-1,0.1-1.8,0
		c0.6-0.2,1-0.5,1.5-0.5c1.1-0.1,2-0.6,2.9-1c0.2-0.1,0.3-0.1,0.7-0.3c-0.8,0-1.3-0.1-1.9-0.1c-0.4,0-0.9,0-1.3,0.1
		C29,24.2,28,24,27.1,24.2c-0.7,0.2-1.5,0.1-2.3,0.2c-0.3,0-0.6,0.1-1,0.1c-0.1,0.2-0.1,0.3-0.1,0.5c-0.1,1.2-0.3,2.4-0.7,3.5
		c-0.4,1.1-0.4,1-1.6,1c-0.6,0-1.1-0.2-1.4-0.6c-0.4-0.6-1.2-0.4-1.7-0.8c-0.2,0.1-0.4,0.2-0.6,0c-0.3-0.2-0.7-0.4-1.1-0.6
		c-0.2-0.1-0.4-0.3-0.6-0.5c-0.5,0.5-1.1,0.7-1.5,1.3c0,0.1-0.1,0.1-0.2,0.1c-0.4,0-0.6,0.1-0.8,0.5c-0.1,0.3-0.5,0.5-0.7,0.7
		c-0.1,0-0.1,0.1-0.1,0.1c-0.3,0.2-0.8,0.1-0.9,0.5c0,0.4-0.5,0.5-0.6,0.8c-0.1,0.3-0.7,0.4-0.8,0.9c0,0-0.3,0.1-0.4,0.1
		c-0.5,0.2-0.9,0.4-1.1,0.8c-0.1,0.2-0.3,0.4-0.6,0.6c-0.7,0.4-1.2,0.9-1.8,1.3c-0.7,0.5-1.1,1.1-1.6,1.7c-0.6,0.6-1.2,1.2-1.7,1.9
		c-0.1,0.2-0.3,0.3-0.5,0.4c-0.4-0.2-0.9-0.3-1.2,0.1c-0.4-0.1-0.7-0.1-1.1-0.2c-0.3-0.4-0.4-0.9-0.1-1.3c0.7-1.1,1.4-2.2,2.6-2.9
		c0.4-0.2,0.7-0.5,1-0.8c1.9-1.8,4-3.5,6.1-5.1c1-0.8,2.1-1.5,3.1-2.3c0.3-0.2,0.7-0.4,0.7-0.8c-0.4-1.1-1.4-1.5-2.6-1.6
		c-0.1,0-0.1,0-0.2,0c-0.9,0.1-1.5-0.5-2.1-0.9c-0.3-0.2-0.3-0.5-0.2-0.8c0.6-1.2,1.1-2.3,2.1-3.2c0.7-0.6,1.4-1.2,2.2-1.7
		c1-0.5,2-1.2,3.1-1.7c0.9-0.5,1.9-0.8,2.9-1.2c0.2-0.1,0.5-0.2,0.7-0.3c0.2-1.3-0.2-1.9-1.5-2.2c-0.5-0.1-0.9,0.1-1.2,0.3
		c-0.2,0.1-0.4,0.4-0.6,0.5c-0.4,0.3-0.6,0.3-1-0.1c-0.1-0.1-0.2-0.1-0.3-0.2c-0.2,0-0.4,0.1-0.6,0.1c-0.5,0-1-0.2-1-0.7
		c-0.1-0.7-0.1-1.3,0.4-1.9c0.4-0.5,0.8-1,1.5-1.3c0.8-0.4,1.4-1,2.1-1.5c0.7-0.5,1.5-1.1,2.2-1.6c0.7-0.6,1.4-1.2,2.1-1.8
		c0.3-0.3,0.5-0.6,0.6-1c0-0.3,0.2-0.6,0.3-0.8c0.3-0.4,0.5-0.8,0.8-1.1c0.1-0.2,0.3-0.3,0.5-0.4c0.3,0.2,0.6,0.3,0.8,0.6
		c0.9,1.1,1.8,2.3,2.1,3.7c0,0.1,0.1,0.2,0.1,0.3c0.3,0.8,0.2,1.6,0,2.4c-0.1,0.7-0.3,0.8-1,1.4c-0.6-0.1-1.3-0.2-2-0.3
		c-0.3,0-0.5-0.1-0.7,0.1c-0.6,0.4-1.2,0.7-1.9,0.6c0,0.4,0.1,0.6,0.4,0.6c1.7,0.5,2.6,1.8,3.6,3c0,0,0.1,0,0.1,0.1
		c0.1,0,0.2,0,0.3,0c0.7-0.4,1.3-0.2,2,0.1c0.7,0.3,1.2,0.7,1.7,1.2c0.2,0.2,0.4,0.4,0.6,0.6c0,0.2-0.1,0.3-0.2,0.5
		c0.1,0.2,0.3,0.3,0.4,0.5c0.3,0.3,0.2,0.7-0.2,0.8c-0.3,0.1-0.5,0.2-0.7,0.4c-0.8,0.5-1.5,1.1-2.3,1.6c0,0-0.1,0-0.1,0.1
		c-0.3,0.3-0.6,0.7-1,1c-0.4,0.2-0.7,0.6-1,0.9c-0.2,0.1-0.2,0.4-0.4,0.4c-0.5,0.2-0.6,0.7-0.6,1.1c0,0.4,0,0.9,0,1.3
		c0,0.1,0.1,0.2,0.2,0.4c0.5-0.1,0.9-0.1,1.4-0.2c0.8-0.2,1.6-0.4,2.4-0.6c0.7-0.1,1.4-0.3,2.1-0.4c0.9-0.1,1.9-0.3,2.8-0.2
		c0.3,0,0.7,0,1,0c0.6,0,1.2-0.1,1.8-0.2c0.7-0.1,1.3,0.1,1.9,0.3c0.2,0.1,0.3,0.2,0.4,0.3c0.3,0.3,0.6,0.6,1,1
		c-0.4,0.4,0.2,0.9,0.2,1.4c-0.6,0.4-1.4,0.4-2.1,0.3c-0.7-0.1-1.4-0.1-2.1,0c-0.6,0-1.1,0.4-1.7,0.1c-0.1-0.1-0.4,0.1-0.6,0.2
		c-0.3,0.1-0.5,0.2-0.8,0.1l0,0C31.4,25.1,31.4,25.1,31.1,25.3L31.1,25.3z M18.8,24.7c0.2,0.1,0.4,0.1,0.5-0.2
		c0-0.2-0.1-0.4-0.2-0.3c-0.2,0-0.3,0.2-0.2,0.4C18.8,24.6,18.8,24.7,18.8,24.7c-0.1,0-0.2,0-0.4,0.1c0,0.1,0,0.2,0.1,0.2
		c0,0,0.1,0,0.2,0.1C18.8,24.9,18.8,24.8,18.8,24.7z M11.7,22.4c1.2,0.7,1.5,1.9,2.4,2.7c0.5-0.4,1.1-0.8,1.6-1.3
		c0.8-0.6,1.5-1.2,2.3-1.8c0.9-0.7,1.6-1.4,1.4-2.6c0-0.3,0-0.5,0.1-0.8c0.1-0.6,0.1-1.3,0.2-1.9c-0.5-0.1-0.8,0-1.2,0.2
		c-0.6,0.4-1.3,0.8-2,1c-1.1,0.4-2,1.1-2.9,1.7C12.8,20.4,12.1,21.3,11.7,22.4z M26.3,15c-1-0.1-1.7,0.2-2.4,0.4
		c-0.1,0.3-0.3,0.5-0.3,0.8c-0.1,0.3-0.2,0.6,0.2,0.8c0.3-0.2,0.6-0.4,0.9-0.6c0.3-0.2,0.5-0.5,0.8-0.7C25.6,15.6,25.9,15.4,26.3,15
		z M16.8,26.5c0.1,0.1,0.1,0.1,0.1,0.1c0.7,0.2,1.4,0,2-0.2c0.2-0.1,0.3-0.4,0.4-0.6c0,0-0.2-0.2-0.3-0.2c-0.3,0.1-0.8,0.1-1,0.4
		c-0.1,0.2-0.4,0.3-0.7,0.4C17.1,26.3,16.9,26.5,16.8,26.5z M28.8,15.8C28.8,15.8,28.9,15.8,28.8,15.8
		C28.9,15.8,28.8,15.7,28.8,15.8C28.8,15.7,28.7,15.8,28.8,15.8C28.7,15.8,28.8,15.8,28.8,15.8z M28.2,16.6
		C28.2,16.5,28.2,16.5,28.2,16.6c0-0.1-0.1,0-0.1,0C28.1,16.5,28.1,16.6,28.2,16.6C28.1,16.6,28.2,16.6,28.2,16.6z"/>
	<path class="st1" d="M17.6,30.5c0,0.1,0,0.1,0,0.2c-0.1,1.1-0.1,2.2-0.2,3.4c0,0.2-0.1,0.4-0.1,0.6c-0.2,0.7-0.2,1.4-0.1,2.1
		c0,0,0,0.1-0.1,0.1c0-0.1,0-0.1,0-0.2c0.1-0.1,0.2-0.3,0.3-0.4c0.2-0.5,0.4-1.1,0.7-1.6c0.7-1.1,1.4-2.3,2.5-3.2
		c0.8-0.7,1.8-1.2,2.8-1.7c0.4-0.2,0.8-0.4,1.2-0.7c0.5-0.3,0.9-0.5,1.4-0.7c0.1-0.1,0.3-0.1,0.4-0.1c0.7,0,1.3,0,1.9,0.1
		c0.1,0,0.3,0.1,0.4,0.2c0.6,0.4,1.2,0.8,1.5,1.5c0.1,0.2,0.2,0.4,0.3,0.5c0.5,0.3,0.6,0.8,0.6,1.3c0,0.5,0.2,1-0.2,1.4
		c-0.1,0.2-0.1,0.5-0.1,0.8c0,0.7-0.1,1.4,0,2.1c0.1,0.7-0.2,1.4-0.1,2.1c0.1,0.8,0,1.5-0.3,2.2c-0.2,0.4-0.3,0.9-0.5,1.2
		c-0.3,0.4-0.5,0.8-0.9,1.1c-0.3,0.2-0.3,0.7-0.8,0.7c-0.8,0.9-2,0.8-3.1,0.9c-0.5,0-1-0.1-1.4-0.4c-0.4-0.3-0.9-0.5-1.4-0.7
		c-0.3-0.1-0.5-0.2-0.8-0.4c-0.3-0.2-0.5-0.5-0.5-0.9c0-1,0.3-1.9,1-2.7c0.2-0.3,0.3-0.6,0.5-0.9c0.3-0.6,0.7-1.1,1.5-1.3
		c0,0,0.1,0,0.1,0c0.7-0.6,1.6-0.5,2.5-0.7c0.2-0.3,0.3-0.7,0.3-1c0-0.8,0.1-1.6,0-2.4c-0.1-0.5-0.2-1-0.3-1.5
		c0-0.1-0.1-0.2-0.2-0.2c-0.6-0.5-1.6-0.7-2.3-0.3c-2,1.1-3.7,2.4-4.8,4.2c-1,1.6-1.3,3.4-1,5.2c0.1,0.6,0.2,1.2,0.2,1.8
		c0,0.5,0.2,0.9,0.4,1.5c-0.1,0.1-0.3,0.2-0.5,0.3c0.5,0.3,0.2,0.7,0.2,1c-0.5,0-1,0.1-1.4,0.5c-0.2,0.2-0.4,0.2-0.6,0
		c-0.3-0.3-0.8-0.5-0.8-1c0-0.2-0.3-0.4-0.5-0.5c-0.7-0.5-1-1.1-1.1-1.9c0-0.2-0.3-0.4,0-0.7c0,0,0-0.1-0.1-0.2
		c-0.6-0.9-0.5-1.9-0.7-2.9c-0.1-0.7,0.1-1.3,0.1-2c0-0.8,0.5-1.4,0.7-2.1c0.2-0.5,0.3-1,0.7-1.4c0.4-0.4,0.8-0.9,1.2-1.3
		c0.2-0.2,0.5-0.5,0.7-0.7C17,30.5,17.3,30.5,17.6,30.5L17.6,30.5z M26.1,38.6c-1.4,0.1-2,0.7-2.4,1.6c-0.1,0.3,0.1,0.8,0.3,1
		c0.1,0.2,0.6,0.1,1.1,0.1C25.5,40.5,25.7,39.7,26.1,38.6z M17,37.7C17,37.7,17,37.7,17,37.7C17,37.7,17,37.7,17,37.7
		c-0.1,0.1-0.1,0.1,0,0.1C17,37.8,17,37.8,17,37.7z"/>
	<path class="st1" d="M17.6,30.6c0-0.2,0.1-0.3,0.3-0.4C17.9,30.4,17.8,30.6,17.6,30.6L17.6,30.6z"/>
	<path class="st1" d="M26.2,26.3C26.2,26.3,26.2,26.3,26.2,26.3c-0.1,0-0.1,0-0.1-0.1C26.2,26.2,26.2,26.2,26.2,26.3
		C26.2,26.2,26.2,26.2,26.2,26.3z"/>
	<polygon class="st1" points="30.2,14.5 30.1,14.5 30.2,14.4 	"/>
	<path class="st1" d="M27,26.1C27,26.1,27,26.1,27,26.1C26.9,26.1,26.9,26.1,27,26.1C26.9,26.1,26.9,26,27,26.1
		C26.9,26,27,26.1,27,26.1z"/>
	<path class="st1" d="M27.6,25.9C27.6,25.9,27.6,25.9,27.6,25.9c-0.1,0-0.1,0-0.2,0C27.5,25.9,27.5,25.9,27.6,25.9
		C27.6,25.9,27.6,25.9,27.6,25.9z"/>
	<path class="st1" d="M31.6,25.3c-0.2,0.2-0.3,0.2-0.4,0l0,0C31.3,25.3,31.4,25.4,31.6,25.3L31.6,25.3z"/>
	<path class="st0" d="M134.7,11.5c0-1.9,0.7-3.5,2-4.9c1.3-1.4,3-2.1,4.8-2.1c1.9,0,3.5,0.7,4.8,2.1c1.3,1.4,2,3,2,5
		c0,1.9-0.7,3.6-2,5c-1.4,1.4-3,2-4.9,2c-1.7,0-3.2-0.6-4.5-1.8C135.4,15.4,134.7,13.7,134.7,11.5z M136.7,11.5
		c0,1.5,0.5,2.7,1.5,3.7c1,1,2.1,1.4,3.3,1.4c1.4,0,2.5-0.5,3.5-1.5c0.9-1,1.4-2.2,1.4-3.6c0-1.4-0.5-2.7-1.4-3.6
		c-0.9-1-2.1-1.5-3.4-1.5c-1.4,0-2.5,0.5-3.4,1.5C137.2,8.9,136.7,10.1,136.7,11.5z"/>
	<path class="st0" d="M157,6.7h-4.6V10h4.4v1.9h-4.4v6.4h-2V4.8h6.5V6.7z"/>
	<path class="st0" d="M170.4,15.1h-5.6l-1.5,3.3h-2.1l6.5-14.4l6.2,14.4h-2.2L170.4,15.1z M169.6,13.1l-1.9-4.6l-2,4.6H169.6z"/>
	<path class="st0" d="M177.5,4.8v11.6h3.8v1.9h-5.8V4.8H177.5z"/>
	<path class="st0" d="M185.2,4.8v11.6h3.8v1.9h-5.8V4.8H185.2z"/>
	<path class="st0" d="M196.1,4.9v12.9h-2V4.9H196.1z"/>
	<path class="st0" d="M202.9,6.7v11.1h-2V6.7h-3.1V4.9h8.2v1.8H202.9z"/>
	<path class="st0" d="M209.2,4l1.7,0.7l-2.5,4.8l-1.3-0.5L209.2,4z"/>
	<path class="st0" d="M221.1,6.6l-1.6,0.9c-0.3-0.5-0.6-0.8-0.9-1c-0.3-0.2-0.7-0.3-1.1-0.3c-0.6,0-1,0.2-1.4,0.5
		c-0.4,0.3-0.6,0.7-0.6,1.1c0,0.6,0.5,1.1,1.5,1.5l1.3,0.5c1.1,0.4,1.9,0.9,2.4,1.6c0.5,0.6,0.8,1.4,0.8,2.2c0,1.2-0.4,2.2-1.2,2.9
		c-0.8,0.8-1.9,1.2-3.1,1.2c-1.2,0-2.1-0.3-2.9-1c-0.7-0.7-1.2-1.6-1.4-2.8l2.1-0.4c0.1,0.8,0.3,1.3,0.5,1.6c0.4,0.6,1,0.8,1.8,0.8
		c0.6,0,1.2-0.2,1.6-0.6c0.4-0.4,0.6-0.9,0.6-1.5c0-0.2,0-0.5-0.1-0.7c-0.1-0.2-0.2-0.4-0.3-0.6c-0.2-0.2-0.4-0.3-0.6-0.5
		c-0.2-0.2-0.5-0.3-0.9-0.4l-1.3-0.5c-1.8-0.7-2.8-1.8-2.8-3.3c0-1,0.4-1.8,1.2-2.4c0.8-0.7,1.7-1,2.9-1
		C219.1,4.4,220.3,5.1,221.1,6.6z"/>
	<path class="st0" d="M229.7,4.9v12.9h-2V4.9H229.7z"/>
	<path class="st0" d="M232.8,17.8V4l9.8,9.8v-9h2v13.7l-9.8-9.8v9H232.8z"/>
	<path class="st0" d="M99.2,32.6v-6.5h4.4V43h-4.4v-6.9h-6.3V43h-4.4V26.1h4.4v6.5H99.2z"/>
	<path class="st0" d="M124.3,34.2c0,5.5-3.9,9.3-9.3,9.3c-5.4,0-9.3-3.9-9.3-9.3c0-5.1,4.5-8.7,9.3-8.7
		C119.8,25.6,124.3,29.1,124.3,34.2z M110.2,34.3c0,2.9,2.1,5,4.8,5c2.6,0,4.8-2.1,4.8-5c0-2.3-2.1-4.5-4.8-4.5
		C112.3,29.8,110.2,31.9,110.2,34.3z"/>
	<path class="st0" d="M126.3,26.1h4.4l8,10.3h0V26.1h4.4V43h-4.4l-8-10.3h0V43h-4.4V26.1z"/>
	<path class="st0" d="M162.9,33.6c0,2.5-0.2,4.6-1.7,6.7c-1.7,2.3-4.1,3.3-7,3.3c-5.3,0-9-3.6-9-8.9c0-5.5,3.7-9.1,9.2-9.1
		c3.5,0,6.2,1.6,7.6,4.7l-4.2,1.7c-0.6-1.6-1.9-2.7-3.6-2.7c-2.9,0-4.4,2.8-4.4,5.3c0,2.6,1.6,5.3,4.5,5.3c1.9,0,3.4-1,3.5-2.9h-3.6
		v-3.4H162.9z"/>
	<path class="st0" d="M179.9,26.1h5.5l-6.8,8.1l7.4,9h-5.7l-5.7-7.4h0v7.4h-4.4v-17h4.4v7h0L179.9,26.1z"/>
	<path class="st0" d="M205.9,34.3c0,5.5-3.9,9.4-9.4,9.4c-5.5,0-9.4-3.9-9.4-9.4c0-5.1,4.5-8.8,9.4-8.8
		C201.4,25.5,205.9,29.2,205.9,34.3z M191.7,34.3c0,2.9,2.2,5.1,4.8,5.1c2.6,0,4.8-2.1,4.8-5.1c0-2.3-2.2-4.5-4.8-4.5
		C193.9,29.8,191.7,32,191.7,34.3z"/>
	<path class="st0" d="M208,26.1h4.4l8.1,10.4h0V26.1h4.4v17h-4.4l-8.1-10.4h0v10.4H208V26.1z"/>
	<path class="st0" d="M244.8,33.6c0,2.5-0.2,4.6-1.7,6.7c-1.7,2.3-4.2,3.3-7,3.3c-5.3,0-9.1-3.6-9.1-9c0-5.5,3.7-9.2,9.2-9.2
		c3.5,0,6.2,1.6,7.7,4.8l-4.2,1.8c-0.6-1.6-1.9-2.7-3.7-2.7c-2.9,0-4.4,2.8-4.4,5.4c0,2.6,1.6,5.3,4.5,5.3c1.9,0,3.4-1,3.6-3H236
		v-3.5H244.8z"/>
</g>
</svg>
